<?xml version="1.0" encoding="utf-8"?>
<!-- Generator: Adobe Illustrator 21.0.1, SVG Export Plug-In . SVG Version: 6.00 Build 0)  -->
<svg version="1.1" id="Layer_1" xmlns="http://www.w3.org/2000/svg" xmlns:xlink="http://www.w3.org/1999/xlink" x="0px" y="0px"
	 viewBox="0 0 150 150" style="enable-background:new 0 0 150 150;" xml:space="preserve">
<style type="text/css">
	.st0{display:none;}
	.st1{display:inline;}
	.st2{fill:#FFFFFF;}
</style>
<g id="backuo" class="st0">
	<g class="st1">
		<path class="st2" d="M75,0C33.6,0,0,33.6,0,75s33.6,75,75,75s75-33.6,75-75S116.4,0,75,0z M120.8,64.7l-45.8,41l-45.8-41
			c-3.3-2.9-1.5-8.9,2.7-8.9c1,0,1.9,0.4,2.7,1L75,93.1l40.5-36.3c0.8-0.7,1.7-1,2.7-1C122.3,55.7,124.1,61.7,120.8,64.7z"/>
	</g>
</g>
<g id="Arrow">
	<g>
		<path class="st2" d="M75,150c41.4,0,75-33.6,75-75S116.4,0,75,0S0,33.6,0,75S33.6,150,75,150z M34.3,85.3l41-41.1l41,41.1
			c2.9,2.9,1.3,8.9-2.4,8.9c-0.9,0-1.7-0.4-2.4-1L75.3,56.9L39,93.2c-0.7,0.7-1.5,1-2.4,1C33,94.3,31.3,88.3,34.3,85.3z"/>
	</g>
</g>
</svg>
