<?xml version="1.0" encoding="utf-8"?>
<!-- Generator: Adobe Illustrator 21.0.1, SVG Export Plug-In . SVG Version: 6.00 Build 0)  -->
<svg version="1.1" id="Cook_Book_Logo" xmlns="http://www.w3.org/2000/svg" xmlns:xlink="http://www.w3.org/1999/xlink" x="0px"
	 y="0px" viewBox="0 0 275 227" style="enable-background:new 0 0 275 227;" xml:space="preserve">
<style type="text/css">
	.st0{display:none;}
	.st1{display:inline;fill:#FFFFFF;}
	.st2{font-family:'Montserrat-Bold';}
	.st3{font-size:65px;}
	.st4{fill:none;stroke:#FFFFFF;stroke-width:10;stroke-miterlimit:10;}
</style>
<g id="Text" class="st0">
	<text transform="matrix(1 0 0 1 -60.1285 240.5823)" class="st1 st2 st3">COOKBOOK</text>
</g>
<g id="Hat">
	<path id="Book_Cover_2_" class="st4" d="M270.8,179.8l-133,17.3l-133-17.3v20.6c20.3,2.6,95.3,11.8,115.6,14.4
		c2,0.7,6.1,7.3,17.4,7.3s15.4-6.6,17.4-7.3c20.3-2.6,95.3-11.8,115.6-14.4C270.8,193.3,270.8,186.8,270.8,179.8z"/>
	<path id="Hat_Top_1_" class="st4" d="M78.5,111.7c13.6-4.3,33.6-9,58.1-9c25.2-0.1,46.1,4.8,59.5,9c25.4-3.4,43.8-22.9,44.7-43.9
		c0.7-16.2-9.2-33-22.8-40c-5.6-2.9-11.9-4.5-18.9-4.5c-6.4,0-12.5,0.1-18,2.4c-8.9-13.8-23.6-19.2-43.8-19.2
		C117.9,6.5,98,13,88.8,25.8c-4.2-1.3-8.6-1.9-13.2-1.9c-24.8,0-41.7,19.7-41.7,43.9S53.8,111.7,78.5,111.7z"/>
	<path id="Pages_1_" class="st4" d="M14.4,162.7c35.8-1.7,73,1.3,113.2,12.4c3.4,0.9,6.8,1.9,10.1,3c3.2-1,6.5-2,9.9-2.9
		c41-11.4,77.4-14.2,113.5-12.5c0,3.2,0,14.1,0,18.3l-123.4,15.4L14.4,180V162.7z"/>
	<path id="Hat_Base_1_" class="st4" d="M79.1,164.8c15.1,1.6,31.4,5.2,48.5,10.1c3.3,0.9,6.5,1.9,9.6,3c3.2-1,6.5-1.9,9.9-2.8
		c16.8-4.5,33-7.6,48.3-9.7c0-29.1,0-25.4,0-54.4c-23.3-7.1-43.8-8.7-58.2-8.7s-34.8,1.6-58.2,8.7C79.1,136.2,79.1,139.6,79.1,164.8
		z"/>
</g>
</svg>
