<?xml version="1.0" encoding="utf-8"?>
<!-- Generator: Adobe Illustrator 21.0.1, SVG Export Plug-In . SVG Version: 6.00 Build 0)  -->
<svg version="1.1" id="Cook_Book_Logo" xmlns="http://www.w3.org/2000/svg" xmlns:xlink="http://www.w3.org/1999/xlink" x="0px"
	 y="0px" viewBox="0 0 400 291.6" style="enable-background:new 0 0 400 291.6;" xml:space="preserve">
<style type="text/css">
	.st0{enable-background:new    ;}
	.st1{fill:#FFFFFF;}
	.st2{fill:none;stroke:#FFFFFF;stroke-width:10;stroke-miterlimit:10;}
</style>
<g id="Text">
	<g class="st0">
		<path class="st1" d="M27.1,255.2c-7,0-12.4,5.5-12.4,12.8s5.3,12.9,12.4,12.9c3.8,0,8.1-2.1,11.3-5.3l7,7.5
			c-4.9,5.1-12.2,8.5-18.9,8.5c-13.7,0-23.9-10-23.9-23.4c0-13.1,10.5-23,24.4-23c6.8,0,13.8,3,18.4,7.8l-6.9,8.3
			C35.4,257.6,31.1,255.2,27.1,255.2z"/>
		<path class="st1" d="M96,268.2c0,13.3-10.5,23.3-24.6,23.3s-24.6-10-24.6-23.3c0-13.3,10.5-23.1,24.6-23.1S96,255,96,268.2z
			 M59,268.3c0,7.4,5.8,13.1,12.5,13.1c6.8,0,12.3-5.7,12.3-13.1s-5.5-13-12.3-13S59,260.9,59,268.3z"/>
		<path class="st1" d="M147.5,268.2c0,13.3-10.5,23.3-24.6,23.3s-24.6-10-24.6-23.3c0-13.3,10.5-23.1,24.6-23.1
			S147.5,255,147.5,268.2z M110.4,268.3c0,7.4,5.8,13.1,12.5,13.1c6.8,0,12.3-5.7,12.3-13.1s-5.5-13-12.3-13
			C116.2,255.3,110.4,260.9,110.4,268.3z"/>
		<path class="st1" d="M183,291l-11.8-17.6l-5.9,6.5V291h-11.9v-45.6h11.9v19.1l17.1-19.1h13.8l-16.9,18.9l17.9,26.7H183z"/>
		<path class="st1" d="M240.6,257c0,4.7-3.1,8.6-7.9,9.9c5.8,1.2,9.4,5.7,9.4,11.5c0,7.8-6.8,12.7-17.5,12.7h-22.5v-45.6h21.6
			C234.1,245.5,240.6,250,240.6,257z M228.4,259.1c0-2.7-2-4.4-5.3-4.3H214v8.8h9.1C226.4,263.6,228.4,261.9,228.4,259.1z
			 M229.8,276.9c0-2.9-2.6-4.7-6.8-4.6h-9v9.6h9.1C227.2,281.8,229.8,280,229.8,276.9z"/>
		<path class="st1" d="M295,268.2c0,13.3-10.5,23.3-24.6,23.3s-24.6-10-24.6-23.3c0-13.3,10.5-23.1,24.6-23.1S295,255,295,268.2z
			 M257.9,268.3c0,7.4,5.8,13.1,12.5,13.1c6.8,0,12.3-5.7,12.3-13.1s-5.5-13-12.3-13S257.9,260.9,257.9,268.3z"/>
		<path class="st1" d="M346.4,268.2c0,13.3-10.5,23.3-24.6,23.3s-24.6-10-24.6-23.3c0-13.3,10.5-23.1,24.6-23.1
			S346.4,255,346.4,268.2z M309.4,268.3c0,7.4,5.8,13.1,12.5,13.1c6.8,0,12.3-5.7,12.3-13.1s-5.5-13-12.3-13
			S309.4,260.9,309.4,268.3z"/>
		<path class="st1" d="M381.9,291l-11.8-17.6l-5.9,6.5V291h-11.9v-45.6h11.9v19.1l17.1-19.1h13.8l-16.9,18.9l17.9,26.7H381.9z"/>
	</g>
</g>
<g id="Hat">
	<path id="Book_Cover_2_" class="st2" d="M333,181l-133,17.3L67,181v20.6c20.3,2.6,95.3,11.8,115.6,14.4c2,0.7,6.1,7.3,17.4,7.3
		c11.3,0,15.4-6.6,17.4-7.3c20.3-2.6,95.3-11.8,115.6-14.4C333,194.6,333,188.1,333,181z"/>
	<path id="Hat_Top_1_" class="st2" d="M140.7,113c13.6-4.3,33.6-9,58.1-9c25.2-0.1,46.1,4.8,59.5,9c25.4-3.4,43.8-22.9,44.7-43.9
		c0.7-16.2-9.2-33-22.8-40c-5.6-2.9-11.9-4.5-18.9-4.5c-6.4,0-12.5,0.1-18,2.4c-8.9-13.8-23.6-19.2-43.8-19.2
		c-19.4,0-39.2,6.5-48.5,19.3c-4.2-1.3-8.6-1.9-13.2-1.9C113,25.1,96,44.8,96,69S115.9,113,140.7,113z"/>
	<path id="Pages_1_" class="st2" d="M76.6,163.9c35.8-1.7,73,1.3,113.2,12.4c3.4,0.9,6.8,1.9,10.1,3c3.2-1,6.5-2,9.9-2.9
		c41-11.4,77.4-14.2,113.5-12.5c0,3.2,0,14.1,0,18.3L200,197.6L76.6,181.2V163.9z"/>
	<path id="Hat_Base_1_" class="st2" d="M141.3,166c15.1,1.6,31.4,5.2,48.5,10.1c3.3,0.9,6.5,1.9,9.6,3c3.2-1,6.5-1.9,9.9-2.8
		c16.8-4.5,33-7.6,48.3-9.7c0-29.1,0-25.4,0-54.4c-23.3-7.1-43.8-8.7-58.2-8.7s-34.8,1.6-58.2,8.7
		C141.3,137.4,141.3,140.8,141.3,166z"/>
</g>
</svg>
